<?xml version="1.0" encoding="utf-8"?>
<!-- Generator: Adobe Illustrator 15.0.2, SVG Export Plug-In . SVG Version: 6.00 Build 0)  -->
<!DOCTYPE svg PUBLIC "-//W3C//DTD SVG 1.1//EN" "http://www.w3.org/Graphics/SVG/1.1/DTD/svg11.dtd">
<svg version="1.1" id="Layer_1" xmlns="http://www.w3.org/2000/svg" xmlns:xlink="http://www.w3.org/1999/xlink" x="0px" y="0px"
	 width="256px" height="256px" viewBox="0 0 156 156" enable-background="new 0 0 156 156" xml:space="preserve">
<path fill-rule="evenodd" clip-rule="evenodd" fill="none" d="M-458.993-1147c43.078,0,78,34.922,78,78s-34.922,78-78,78
	s-78-34.922-78-78S-502.071-1147-458.993-1147z"/>
<path fill-rule="evenodd" clip-rule="evenodd" fill="#EA2227" d="M78.007,0c43.078,0,78,34.922,78,78s-34.922,78-78,78
	s-78-34.922-78-78S34.929,0,78.007,0z"/>
<path fill-rule="evenodd" clip-rule="evenodd" fill="#FFFFFF" d="M115.029,97.298L99.05,78h10.272
	c0-16.927-13.797-30.65-30.815-30.65c-8.498,0-16.191,3.422-21.766,8.955l-8.062-8.035c7.639-7.583,18.183-12.271,29.828-12.271
	c23.322,0,42.229,18.805,42.229,42.001h10.271L115.029,97.298z M47.768,78c0,16.921,13.762,30.639,30.739,30.639
	c8.488,0,16.174-3.429,21.736-8.974l8.062,8.036c-7.626,7.6-18.161,12.301-29.798,12.301c-23.274,0-42.142-18.805-42.142-42.001
	H26.007l15.979-19.298L57.964,78H47.768z"/>
</svg>
